<?xml version="1.0" encoding="UTF-8"?><svg xmlns="http://www.w3.org/2000/svg" xmlns:xlink="http://www.w3.org/1999/xlink" fill-opacity="1" color-rendering="auto" color-interpolation="auto" text-rendering="auto" stroke="black" stroke-linecap="square" width="1291" stroke-miterlimit="10" shape-rendering="auto" stroke-opacity="1" fill="black" stroke-dasharray="none" font-weight="normal" stroke-width="1" height="521" font-family="'Dialog'" font-style="normal" stroke-linejoin="miter" font-size="12" stroke-dashoffset="0" image-rendering="auto">
  <!--Generated by ySVG-->
  <defs id="genericDefs"/>
  <g>
    <defs id="defs1">
      <clipPath clipPathUnits="userSpaceOnUse" id="clipPath1">
        <path d="M0 0 L1291 0 L1291 521 L0 521 L0 0 Z"/>
      </clipPath>
    </defs>
    <g id="y.node.0">
      <g fill="white" transform="matrix(0.963,0,0,0.963,23.1128,9.6303)" stroke="white">
        <rect width="69" x="193" height="58" y="196" stroke="none"/>
      </g>
      <g transform="matrix(0.963,0,0,0.963,23.1128,9.6303)">
        <rect fill="none" width="69" x="193" height="58" y="196"/>
      </g>
      <g id="bla">
        <g font-family="sans-serif" transform="matrix(0.963,0,0,0.963,23.1128,9.6303)">
          <text xml:space="preserve" x="208.1816" y="215.2715" stroke="none">Proc_2</text>
          <text xml:space="preserve" x="200.1816" y="229.9727" stroke="none">PROG: 38</text>
          <text xml:space="preserve" x="201.6816" y="244.6738" stroke="none">STACK: 0</text>
        </g>
      </g>
    </g>
    <g id="y.node.1">
      <g fill="white" transform="matrix(0.963,0,0,0.963,23.1128,9.6303)" stroke="white">
        <rect width="69" x="407" height="58" y="98" stroke="none"/>
        <rect x="407" y="98" fill="none" width="69" height="58" stroke="black"/>
      </g>
      <g id="bla">
        <g font-family="sans-serif" transform="matrix(0.963,0,0,0.963,23.1128,9.6303)">
          <text xml:space="preserve" x="422.6816" y="117.168" stroke="none">Proc_3</text>
          <text xml:space="preserve" x="414.6816" y="131.8691" stroke="none">PROG: 32</text>
          <text xml:space="preserve" x="416.1816" y="146.5703" stroke="none">STACK: 0</text>
        </g>
      </g>
    </g>
    <g id="y.node.2">
      <g fill="white" transform="matrix(0.963,0,0,0.963,23.1128,9.6303)" stroke="white">
        <rect width="76" x="385" height="58" y="196" stroke="none"/>
        <rect x="385" y="196" fill="none" width="76" height="58" stroke="black"/>
      </g>
      <g id="bla">
        <g font-family="sans-serif" transform="matrix(0.963,0,0,0.963,23.1128,9.6303)">
          <text xml:space="preserve" x="403.6816" y="215.2715" stroke="none">Proc_1</text>
          <text xml:space="preserve" x="392.1816" y="229.9727" stroke="none">PROG: 168</text>
          <text xml:space="preserve" x="393.6816" y="244.6738" stroke="none">STACK: 32</text>
        </g>
      </g>
    </g>
    <g id="y.node.3">
      <g fill="white" transform="matrix(0.963,0,0,0.963,23.1128,9.6303)" stroke="white">
        <rect width="76" x="163" height="58" y="98" stroke="none"/>
        <rect x="163" y="98" fill="none" width="76" height="58" stroke="black"/>
      </g>
      <g id="bla">
        <g font-family="sans-serif" transform="matrix(0.963,0,0,0.963,23.1128,9.6303)">
          <text xml:space="preserve" x="182.1816" y="117.168" stroke="none">Proc_6</text>
          <text xml:space="preserve" x="170.6816" y="131.8691" stroke="none">PROG: 120</text>
          <text xml:space="preserve" x="172.1816" y="146.5703" stroke="none">STACK: 32</text>
        </g>
      </g>
    </g>
    <g id="y.node.4">
      <g fill="white" transform="matrix(0.963,0,0,0.963,23.1128,9.6303)" stroke="white">
        <rect width="69" x="795" height="58" y="196" stroke="none"/>
        <rect x="795" y="196" fill="none" width="69" height="58" stroke="black"/>
      </g>
      <g id="bla">
        <g font-family="sans-serif" transform="matrix(0.963,0,0,0.963,23.1128,9.6303)">
          <text xml:space="preserve" x="810.4316" y="215.2715" stroke="none">Proc_4</text>
          <text xml:space="preserve" x="802.4316" y="229.9727" stroke="none">PROG: 44</text>
          <text xml:space="preserve" x="803.9316" y="244.6738" stroke="none">STACK: 0</text>
        </g>
      </g>
    </g>
    <g id="y.node.5">
      <g fill="white" transform="matrix(0.963,0,0,0.963,23.1128,9.6303)" stroke="white">
        <rect width="69" x="613" height="58" y="196" stroke="none"/>
        <rect x="613" y="196" fill="none" width="69" height="58" stroke="black"/>
      </g>
      <g id="bla">
        <g font-family="sans-serif" transform="matrix(0.963,0,0,0.963,23.1128,9.6303)">
          <text xml:space="preserve" x="628.4316" y="215.2715" stroke="none">Proc_5</text>
          <text xml:space="preserve" x="620.4316" y="229.9727" stroke="none">PROG: 22</text>
          <text xml:space="preserve" x="621.9316" y="244.6738" stroke="none">STACK: 0</text>
        </g>
      </g>
    </g>
    <g id="y.node.6">
      <g fill="white" transform="matrix(0.963,0,0,0.963,23.1128,9.6303)" stroke="white">
        <rect width="66" x="884" height="58" y="196" stroke="none"/>
        <rect x="884" y="196" fill="none" width="66" height="58" stroke="black"/>
      </g>
      <g id="bla">
        <g font-family="sans-serif" transform="matrix(0.963,0,0,0.963,23.1128,9.6303)">
          <text xml:space="preserve" x="897.9316" y="215.2715" stroke="none">Proc_7</text>
          <text xml:space="preserve" x="893.4316" y="229.9727" stroke="none">PROG: 8</text>
          <text xml:space="preserve" x="891.4316" y="244.6738" stroke="none">STACK: 0</text>
        </g>
      </g>
    </g>
    <g id="y.node.7">
      <g fill="white" transform="matrix(0.963,0,0,0.963,23.1128,9.6303)" stroke="white">
        <rect width="69" x="970" height="58" y="196" stroke="none"/>
        <rect x="970" y="196" fill="none" width="69" height="58" stroke="black"/>
      </g>
      <g id="bla">
        <g font-family="sans-serif" transform="matrix(0.963,0,0,0.963,23.1128,9.6303)">
          <text xml:space="preserve" x="985.4316" y="215.2715" stroke="none">Proc_8</text>
          <text xml:space="preserve" x="977.4316" y="229.9727" stroke="none">PROG: 74</text>
          <text xml:space="preserve" x="978.9316" y="244.6738" stroke="none">STACK: 0</text>
        </g>
      </g>
    </g>
    <g id="y.node.8">
      <g fill="white" transform="matrix(0.963,0,0,0.963,23.1128,9.6303)" stroke="white">
        <rect width="69" x="496" height="58" y="98" stroke="none"/>
        <rect x="496" y="98" fill="none" width="69" height="58" stroke="black"/>
      </g>
      <g id="bla">
        <g font-family="sans-serif" transform="matrix(0.963,0,0,0.963,23.1128,9.6303)">
          <text xml:space="preserve" x="510.6816" y="117.168" stroke="none">Func_1</text>
          <text xml:space="preserve" x="503.6816" y="131.8691" stroke="none">PROG: 28</text>
          <text xml:space="preserve" x="505.1816" y="146.5703" stroke="none">STACK: 0</text>
        </g>
      </g>
    </g>
    <g id="y.node.9">
      <g fill="white" transform="matrix(0.963,0,0,0.963,23.1128,9.6303)" stroke="white">
        <rect width="73" x="702" height="58" y="196" stroke="none"/>
        <rect x="702" y="196" fill="none" width="73" height="58" stroke="black"/>
      </g>
      <g id="bla">
        <g font-family="sans-serif" transform="matrix(0.963,0,0,0.963,23.1128,9.6303)">
          <text xml:space="preserve" x="718.4316" y="215.2715" stroke="none">Func_2</text>
          <text xml:space="preserve" x="711.4316" y="229.9727" stroke="none">PROG: 66</text>
          <text xml:space="preserve" x="709.4316" y="244.6738" stroke="none">STACK: 32</text>
        </g>
      </g>
    </g>
    <g id="y.node.10">
      <g fill="white" transform="matrix(0.963,0,0,0.963,23.1128,9.6303)" stroke="white">
        <rect width="69" x="722" height="58" y="98" stroke="none"/>
        <rect x="722" y="98" fill="none" width="69" height="58" stroke="black"/>
      </g>
      <g id="bla">
        <g font-family="sans-serif" transform="matrix(0.963,0,0,0.963,23.1128,9.6303)">
          <text xml:space="preserve" x="738.1816" y="117.168" stroke="none">strcmp</text>
          <text xml:space="preserve" x="729.6816" y="131.8691" stroke="none">PROG: 30</text>
          <text xml:space="preserve" x="731.1816" y="146.5703" stroke="none">STACK: 0</text>
        </g>
      </g>
    </g>
    <g id="y.node.11">
      <g fill="white" transform="matrix(0.963,0,0,0.963,23.1128,9.6303)" stroke="white">
        <rect width="66" x="168" height="58" y="0" stroke="none"/>
        <rect x="168" y="0" fill="none" width="66" height="58" stroke="black"/>
      </g>
      <g id="bla">
        <g font-family="sans-serif" transform="matrix(0.963,0,0,0.963,23.1128,9.6303)">
          <text xml:space="preserve" x="181.1816" y="19.0645" stroke="none">Func_3</text>
          <text xml:space="preserve" x="177.6816" y="33.7656" stroke="none">PROG: 8</text>
          <text xml:space="preserve" x="175.6816" y="48.4668" stroke="none">STACK: 0</text>
        </g>
      </g>
    </g>
    <g id="y.node.12">
      <g fill="white" transform="matrix(0.963,0,0,0.963,23.1128,9.6303)" stroke="white">
        <rect width="83" x="282" height="58" y="196" stroke="none"/>
        <rect x="282" y="196" fill="none" width="83" height="58" stroke="black"/>
      </g>
      <g id="bla">
        <g font-family="sans-serif" transform="matrix(0.963,0,0,0.963,23.1128,9.6303)">
          <text xml:space="preserve" x="289.1816" y="215.2715" stroke="none">debug_printf</text>
          <text xml:space="preserve" x="296.1816" y="229.9727" stroke="none">PROG: 20</text>
          <text xml:space="preserve" x="294.1816" y="244.6738" stroke="none">STACK: 64</text>
        </g>
      </g>
    </g>
    <g id="y.node.13">
      <g fill="white" transform="matrix(0.963,0,0,0.963,23.1128,9.6303)" stroke="white">
        <rect width="80" x="1079" height="58" y="98" stroke="none"/>
        <rect x="1079" y="98" fill="none" width="80" height="58" stroke="black"/>
      </g>
      <g id="bla">
        <g font-family="sans-serif" transform="matrix(0.963,0,0,0.963,23.1128,9.6303)">
          <text xml:space="preserve" x="1096.4316" y="117.168" stroke="none">vprintfmt</text>
          <text xml:space="preserve" x="1088.4316" y="131.8691" stroke="none">PROG: 784</text>
          <text xml:space="preserve" x="1086.4316" y="146.5703" stroke="none">STACK: 352</text>
        </g>
      </g>
    </g>
    <g id="y.node.14">
      <g fill="rgb(127,255,212)" transform="matrix(0.963,0,0,0.963,23.1128,9.6303)" stroke="rgb(127,255,212)">
        <rect width="92" x="1073" height="58" y="0" stroke="none"/>
        <rect x="1073" y="0" fill="none" width="92" height="58" stroke="black"/>
      </g>
      <g id="bla">
        <g font-family="sans-serif" transform="matrix(0.963,0,0,0.963,23.1128,9.6303)">
          <text xml:space="preserve" x="1080.4316" y="19.0645" stroke="none">__unknown__</text>
          <text xml:space="preserve" x="1095.4316" y="33.7656" stroke="none">PROG: 0</text>
          <text xml:space="preserve" x="1093.4316" y="48.4668" stroke="none">STACK: 0</text>
        </g>
      </g>
    </g>
    <g id="y.node.15">
      <g fill="white" transform="matrix(0.963,0,0,0.963,23.1128,9.6303)" stroke="white">
        <rect width="69" x="524" height="58" y="196" stroke="none"/>
        <rect x="524" y="196" fill="none" width="69" height="58" stroke="black"/>
      </g>
      <g id="bla">
        <g font-family="sans-serif" transform="matrix(0.963,0,0,0.963,23.1128,9.6303)">
          <text xml:space="preserve" x="536.4316" y="215.2715" stroke="none">setStats</text>
          <text xml:space="preserve" x="531.4316" y="229.9727" stroke="none">PROG: 78</text>
          <text xml:space="preserve" x="532.9316" y="244.6738" stroke="none">STACK: 0</text>
        </g>
      </g>
    </g>
    <g id="y.node.16">
      <g fill="white" transform="matrix(0.963,0,0,0.963,23.1128,9.6303)" stroke="white">
        <rect width="73" x="1199" height="58" y="344" stroke="none"/>
        <rect x="1199" y="344" fill="none" width="73" height="58" stroke="black"/>
      </g>
      <g id="bla">
        <g font-family="sans-serif" transform="matrix(0.963,0,0,0.963,23.1128,9.6303)">
          <text xml:space="preserve" x="1206.4316" y="363.375" stroke="none">tohost_exit</text>
          <text xml:space="preserve" x="1208.4316" y="378.0762" stroke="none">PROG: 18</text>
          <text xml:space="preserve" x="1209.9316" y="392.7773" stroke="none">STACK: 0</text>
        </g>
      </g>
    </g>
    <g id="y.node.17">
      <g fill="white" transform="matrix(0.963,0,0,0.963,23.1128,9.6303)" stroke="white">
        <rect width="73" x="1217" height="58" y="462" stroke="none"/>
        <rect x="1217" y="462" fill="none" width="73" height="58" stroke="black"/>
      </g>
      <g id="bla">
        <g font-family="sans-serif" transform="matrix(0.963,0,0,0.963,23.1128,9.6303)">
          <text xml:space="preserve" x="1245.1816" y="481.4785" stroke="none">exit</text>
          <text xml:space="preserve" x="1230.1816" y="496.1797" stroke="none">PROG: 8</text>
          <text xml:space="preserve" x="1224.6816" y="510.8809" stroke="none">STACK: 16</text>
        </g>
      </g>
    </g>
    <g id="y.node.18">
      <g fill="white" transform="matrix(0.963,0,0,0.963,23.1128,9.6303)" stroke="white">
        <rect width="80" x="43" height="58" y="196" stroke="none"/>
        <rect x="43" y="196" fill="none" width="80" height="58" stroke="black"/>
      </g>
      <g id="bla">
        <g font-family="sans-serif" transform="matrix(0.963,0,0,0.963,23.1128,9.6303)">
          <text xml:space="preserve" x="64.5" y="215.2715" stroke="none">printstr</text>
          <text xml:space="preserve" x="56" y="229.9727" stroke="none">PROG: 90</text>
          <text xml:space="preserve" x="50.5" y="244.6738" stroke="none">STACK: 128</text>
        </g>
      </g>
    </g>
    <g id="y.node.19">
      <g fill="white" transform="matrix(0.963,0,0,0.963,23.1128,9.6303)" stroke="white">
        <rect width="82" x="378" height="58" y="344" stroke="none"/>
        <rect x="378" y="344" fill="none" width="82" height="58" stroke="black"/>
      </g>
      <g id="bla">
        <g font-family="sans-serif" transform="matrix(0.963,0,0,0.963,23.1128,9.6303)">
          <text xml:space="preserve" x="385.2232" y="363.375" stroke="none">thread_entry</text>
          <text xml:space="preserve" x="395.2232" y="378.0762" stroke="none">PROG: 6</text>
          <text xml:space="preserve" x="393.2232" y="392.7773" stroke="none">STACK: 0</text>
        </g>
      </g>
    </g>
    <g id="y.node.20">
      <g fill="white" transform="matrix(0.963,0,0,0.963,23.1128,9.6303)" stroke="white">
        <rect width="73" x="0" height="58" y="344" stroke="none"/>
        <rect x="0" y="344" fill="none" width="73" height="58" stroke="black"/>
      </g>
      <g id="bla">
        <g font-family="sans-serif" transform="matrix(0.963,0,0,0.963,23.1128,9.6303)">
          <text xml:space="preserve" x="15" y="363.375" stroke="none">printhex</text>
          <text xml:space="preserve" x="9" y="378.0762" stroke="none">PROG: 66</text>
          <text xml:space="preserve" x="7" y="392.7773" stroke="none">STACK: 48</text>
        </g>
      </g>
    </g>
    <g id="y.node.21">
      <g fill="white" transform="matrix(0.963,0,0,0.963,23.1128,9.6303)" stroke="white">
        <rect width="73" x="1059" height="58" y="196" stroke="none"/>
        <rect x="1059" y="196" fill="none" width="73" height="58" stroke="black"/>
      </g>
      <g id="bla">
        <g font-family="sans-serif" transform="matrix(0.963,0,0,0.963,23.1128,9.6303)">
          <text xml:space="preserve" x="1082.4316" y="215.2715" stroke="none">printf</text>
          <text xml:space="preserve" x="1068.4316" y="229.9727" stroke="none">PROG: 50</text>
          <text xml:space="preserve" x="1066.4316" y="244.6738" stroke="none">STACK: 96</text>
        </g>
      </g>
    </g>
    <g id="y.node.22">
      <g fill="white" transform="matrix(0.963,0,0,0.963,23.1128,9.6303)" stroke="white">
        <rect width="73" x="1106" height="58" y="344" stroke="none"/>
        <rect x="1106" y="344" fill="none" width="73" height="58" stroke="black"/>
      </g>
      <g id="bla">
        <g font-family="sans-serif" transform="matrix(0.963,0,0,0.963,23.1128,9.6303)">
          <text xml:space="preserve" x="1125.9316" y="363.375" stroke="none">sprintf</text>
          <text xml:space="preserve" x="1115.4316" y="378.0762" stroke="none">PROG: 64</text>
          <text xml:space="preserve" x="1113.4316" y="392.7773" stroke="none">STACK: 96</text>
        </g>
      </g>
    </g>
    <g id="y.node.23">
      <g fill="white" transform="matrix(0.963,0,0,0.963,23.1128,9.6303)" stroke="white">
        <rect width="69" x="200" height="58" y="344" stroke="none"/>
        <rect x="200" y="344" fill="none" width="69" height="58" stroke="black"/>
      </g>
      <g id="bla">
        <g font-family="sans-serif" transform="matrix(0.963,0,0,0.963,23.1128,9.6303)">
          <text xml:space="preserve" x="211.2233" y="363.375" stroke="none">memcpy</text>
          <text xml:space="preserve" x="207.2233" y="378.0762" stroke="none">PROG: 66</text>
          <text xml:space="preserve" x="208.7233" y="392.7773" stroke="none">STACK: 0</text>
        </g>
      </g>
    </g>
    <g id="y.node.24">
      <g fill="white" transform="matrix(0.963,0,0,0.963,23.1128,9.6303)" stroke="white">
        <rect width="69" x="289" height="58" y="344" stroke="none"/>
        <rect x="289" y="344" fill="none" width="69" height="58" stroke="black"/>
      </g>
      <g id="bla">
        <g font-family="sans-serif" transform="matrix(0.963,0,0,0.963,23.1128,9.6303)">
          <text xml:space="preserve" x="300.7232" y="363.375" stroke="none">memset</text>
          <text xml:space="preserve" x="296.2232" y="378.0762" stroke="none">PROG: 70</text>
          <text xml:space="preserve" x="297.7232" y="392.7773" stroke="none">STACK: 0</text>
        </g>
      </g>
    </g>
    <g id="y.node.25">
      <g fill="white" transform="matrix(0.963,0,0,0.963,23.1128,9.6303)" stroke="white">
        <rect width="80" x="379" height="58" y="462" stroke="none"/>
        <rect x="379" y="462" fill="none" width="80" height="58" stroke="black"/>
      </g>
      <g id="bla">
        <g font-family="sans-serif" transform="matrix(0.963,0,0,0.963,23.1128,9.6303)">
          <text xml:space="preserve" x="407.7232" y="481.4785" stroke="none">_init</text>
          <text xml:space="preserve" x="388.2232" y="496.1797" stroke="none">PROG: 172</text>
          <text xml:space="preserve" x="386.2232" y="510.8809" stroke="none">STACK: 192</text>
        </g>
      </g>
    </g>
    <g id="y.node.26">
      <g fill="white" transform="matrix(0.963,0,0,0.963,23.1128,9.6303)" stroke="white">
        <rect width="83" x="517" height="58" y="344" stroke="none"/>
        <rect x="517" y="344" fill="none" width="83" height="58" stroke="black"/>
      </g>
      <g id="bla">
        <g font-family="sans-serif" transform="matrix(0.963,0,0,0.963,23.1128,9.6303)">
          <text xml:space="preserve" x="544.9316" y="363.375" stroke="none">main</text>
          <text xml:space="preserve" x="524.4316" y="378.0762" stroke="none">PROG: 1780</text>
          <text xml:space="preserve" x="529.4316" y="392.7773" stroke="none">STACK: 16</text>
        </g>
      </g>
    </g>
    <g id="y.edge.0">
      <g stroke-miterlimit="1.45" transform="matrix(0.963,0,0,0.963,23.1128,9.6303)" stroke-linecap="butt">
        <path fill="none" d="M442.1816 196.168 L442.1816 164.2461"/>
        <path d="M442.1816 156.2461 L437.1816 168.2461 L442.1816 165.2461 L447.1816 168.2461 Z" stroke="none"/>
      </g>
    </g>
    <g id="y.edge.1">
      <g stroke-miterlimit="1.45" transform="matrix(0.963,0,0,0.963,23.1128,9.6303)" stroke-linecap="butt">
        <path fill="none" d="M404.1816 196.168 L404.1816 176.207 L220.6816 176.207 L220.6816 164.2461"/>
        <path d="M220.6816 156.2461 L215.6816 168.2461 L220.6816 165.2461 L225.6816 168.2461 Z" stroke="none"/>
      </g>
    </g>
    <g id="y.edge.2">
      <g stroke-miterlimit="1.45" transform="matrix(0.963,0,0,0.963,23.1128,9.6303)" stroke-linecap="butt">
        <path fill="none" d="M201.6816 98.0645 L201.6816 66.1425"/>
        <path d="M201.6816 58.1425 L196.6816 70.1425 L201.6816 67.1425 L206.6816 70.1425 Z" stroke="none"/>
      </g>
    </g>
    <g id="y.edge.3">
      <g stroke-miterlimit="1.45" transform="matrix(0.963,0,0,0.963,23.1128,9.6303)" stroke-linecap="butt">
        <path fill="none" d="M720.6816 196.168 L720.6816 176.207 L548.4316 176.207 L548.4316 164.2461"/>
        <path d="M548.4316 156.2461 L543.4316 168.2461 L548.4316 165.2461 L553.4316 168.2461 Z" stroke="none"/>
      </g>
    </g>
    <g id="y.edge.4">
      <g stroke-miterlimit="1.45" transform="matrix(0.963,0,0,0.963,23.1128,9.6303)" stroke-linecap="butt">
        <path fill="none" d="M757.1816 196.168 L757.1816 164.2461"/>
        <path d="M757.1816 156.2461 L752.1816 168.2461 L757.1816 165.2461 L762.1816 168.2461 Z" stroke="none"/>
      </g>
    </g>
    <g id="y.edge.5">
      <g stroke-miterlimit="1.45" transform="matrix(0.963,0,0,0.963,23.1128,9.6303)" stroke-linecap="butt">
        <path fill="none" d="M1119.4316 98.0645 L1119.4316 66.1425"/>
        <path d="M1119.4316 58.1425 L1114.4316 70.1425 L1119.4316 67.1425 L1124.4316 70.1425 Z" stroke="none"/>
      </g>
    </g>
    <g id="y.edge.6">
      <g stroke-miterlimit="1.45" transform="matrix(0.963,0,0,0.963,23.1128,9.6303)" stroke-linecap="butt">
        <path fill="none" d="M1254.1816 462.3848 L1254.1816 410.4434"/>
        <path d="M1254.1816 402.4434 L1249.1816 414.4434 L1254.1816 411.4434 L1259.1816 414.4434 Z" stroke="none"/>
      </g>
    </g>
    <g id="y.edge.7">
      <g stroke-miterlimit="1.45" transform="matrix(0.963,0,0,0.963,23.1128,9.6303)" stroke-linecap="butt">
        <path fill="none" d="M36.5 344.2764 L36.5 274.3105 L56.8333 274.3105 L56.8333 262.3496"/>
        <path d="M56.8333 254.3496 L51.8333 266.3496 L56.8333 263.3496 L61.8333 266.3496 Z" stroke="none"/>
      </g>
    </g>
    <g id="y.edge.8">
      <g stroke-miterlimit="1.45" transform="matrix(0.963,0,0,0.963,23.1128,9.6303)" stroke-linecap="butt">
        <path fill="none" d="M1095.9316 196.168 L1095.9316 176.207 L1099.4316 176.207 L1099.4316 164.2461"/>
        <path d="M1099.4316 156.2461 L1094.4316 168.2461 L1099.4316 165.2461 L1104.4316 168.2461 Z" stroke="none"/>
      </g>
    </g>
    <g id="y.edge.9">
      <g stroke-miterlimit="1.45" transform="matrix(0.963,0,0,0.963,23.1128,9.6303)" stroke-linecap="butt">
        <path fill="none" d="M1142.9316 344.2695 L1142.9316 176.207 L1139.4316 176.207 L1139.4316 164.2461"/>
        <path d="M1139.4316 156.2461 L1134.4316 168.2461 L1139.4316 165.2461 L1144.4316 168.2461 Z" stroke="none"/>
      </g>
    </g>
    <g id="y.edge.10">
      <g stroke-miterlimit="1.45" transform="matrix(0.963,0,0,0.963,23.1128,9.6303)" stroke-linecap="butt">
        <path fill="none" d="M396.3661 462.3848 L396.3661 432.4141 L234.7233 432.4141 L234.7233 410.4434"/>
        <path d="M234.7233 402.4434 L229.7233 414.4434 L234.7233 411.4434 L239.7233 414.4434 Z" stroke="none"/>
      </g>
    </g>
    <g id="y.edge.11">
      <g stroke-miterlimit="1.45" transform="matrix(0.963,0,0,0.963,23.1128,9.6303)" stroke-linecap="butt">
        <path fill="none" d="M407.7947 462.375 L407.7947 422.4141 L323.7232 422.4141 L323.7232 410.4531"/>
        <path d="M323.7232 402.4531 L318.7232 414.4531 L323.7232 411.4531 L328.7232 414.4531 Z" stroke="none"/>
      </g>
    </g>
    <g id="y.edge.12">
      <g stroke-miterlimit="1.45" transform="matrix(0.963,0,0,0.963,23.1128,9.6303)" stroke-linecap="butt">
        <path fill="none" d="M419.2232 462.3848 L419.2232 410.4434"/>
        <path d="M419.2232 402.4434 L414.2232 414.4434 L419.2232 411.4434 L424.2232 414.4434 Z" stroke="none"/>
      </g>
    </g>
    <g id="y.edge.13">
      <g stroke-miterlimit="1.45" transform="matrix(0.963,0,0,0.963,23.1128,9.6303)" stroke-linecap="butt">
        <path fill="none" d="M430.6518 462.375 L430.6518 422.4141 L558.9316 422.4141 L558.9316 410.4531"/>
        <path d="M558.9316 402.4531 L553.9316 414.4531 L558.9316 411.4531 L563.9316 414.4531 Z" stroke="none"/>
      </g>
    </g>
    <g id="y.edge.14">
      <g stroke-miterlimit="1.45" transform="matrix(0.963,0,0,0.963,23.1128,9.6303)" stroke-linecap="butt">
        <path fill="none" d="M453.509 462.375 L453.509 442.4141 L1217.6816 442.4141 L1217.6816 410.4531"/>
        <path d="M1217.6816 402.4531 L1212.6816 414.4531 L1217.6816 411.4531 L1222.6816 414.4531 Z" stroke="none"/>
      </g>
    </g>
    <g id="y.edge.15">
      <g stroke-miterlimit="1.45" transform="matrix(0.963,0,0,0.963,23.1128,9.6303)" stroke-linecap="butt">
        <path fill="none" d="M442.0804 462.3848 L442.0804 432.4141 L1142.9316 432.4141 L1142.9316 410.4434"/>
        <path d="M1142.9316 402.4434 L1137.9316 414.4434 L1142.9316 411.4434 L1147.9316 414.4434 Z" stroke="none"/>
      </g>
    </g>
    <g id="y.edge.16">
      <g stroke-miterlimit="1.45" transform="matrix(0.963,0,0,0.963,23.1128,9.6303)" stroke-linecap="butt">
        <path fill="none" d="M384.9375 462.375 L384.9375 442.4141 L83.5 442.4141 L83.5 262.3565"/>
        <path d="M83.5 254.3565 L78.5 266.3565 L83.5 263.3565 L88.5 266.3565 Z" stroke="none"/>
      </g>
    </g>
    <g id="y.edge.17">
      <g stroke-miterlimit="1.45" transform="matrix(0.963,0,0,0.963,23.1128,9.6303)" stroke-linecap="butt">
        <path fill="none" d="M539.7777 344.2617 L539.7777 294.3105 L323.6816 294.3105 L323.6816 262.3496"/>
        <path d="M323.6816 254.3496 L318.6816 266.3496 L323.6816 263.3496 L328.6816 266.3496 Z" stroke="none"/>
      </g>
    </g>
    <g id="y.edge.18">
      <g stroke-miterlimit="1.45" transform="matrix(0.963,0,0,0.963,23.1128,9.6303)" stroke-linecap="butt">
        <path fill="none" d="M558.9316 344.2666 L558.9316 262.3545"/>
        <path d="M558.9316 254.3545 L553.9316 266.3545 L558.9316 263.3545 L563.9316 266.3545 Z" stroke="none"/>
      </g>
    </g>
    <g id="y.edge.19">
      <g stroke-miterlimit="1.45" transform="matrix(0.963,0,0,0.963,23.1128,9.6303)" stroke-linecap="butt">
        <path fill="none" d="M565.3162 344.2764 L565.3162 274.3105 L647.9316 274.3105 L647.9316 262.3496"/>
        <path d="M647.9316 254.3496 L642.9316 266.3496 L647.9316 263.3496 L652.9316 266.3496 Z" stroke="none"/>
      </g>
    </g>
    <g id="y.edge.20">
      <g stroke-miterlimit="1.45" transform="matrix(0.963,0,0,0.963,23.1128,9.6303)" stroke-linecap="butt">
        <path fill="none" d="M578.0854 344.2617 L578.0854 294.3105 L829.9316 294.3105 L829.9316 262.3496"/>
        <path d="M829.9316 254.3496 L824.9316 266.3496 L829.9316 263.3496 L834.9316 266.3496 Z" stroke="none"/>
      </g>
    </g>
    <g id="y.edge.21">
      <g stroke-miterlimit="1.45" transform="matrix(0.963,0,0,0.963,23.1128,9.6303)" stroke-linecap="butt">
        <path fill="none" d="M571.7008 344.2812 L571.7008 284.3105 L738.9316 284.3105 L738.9316 262.3398"/>
        <path d="M738.9316 254.3398 L733.9316 266.3398 L738.9316 263.3398 L743.9316 266.3398 Z" stroke="none"/>
      </g>
    </g>
    <g id="y.edge.22">
      <g stroke-miterlimit="1.45" transform="matrix(0.963,0,0,0.963,23.1128,9.6303)" stroke-linecap="butt">
        <path fill="none" d="M584.47 344.2715 L584.47 304.3105 L917.4316 304.3105 L917.4316 262.3594"/>
        <path d="M917.4316 254.3594 L912.4316 266.3594 L917.4316 263.3594 L922.4316 266.3594 Z" stroke="none"/>
      </g>
    </g>
    <g id="y.edge.23">
      <g stroke-miterlimit="1.45" transform="matrix(0.963,0,0,0.963,23.1128,9.6303)" stroke-linecap="butt">
        <path fill="none" d="M590.8547 344.2812 L590.8547 314.3105 L1004.9316 314.3105 L1004.9316 262.3398"/>
        <path d="M1004.9316 254.3398 L999.9316 266.3398 L1004.9316 263.3398 L1009.9316 266.3398 Z" stroke="none"/>
      </g>
    </g>
    <g id="y.edge.24">
      <g stroke-miterlimit="1.45" transform="matrix(0.963,0,0,0.963,23.1128,9.6303)" stroke-linecap="butt">
        <path fill="none" d="M546.1624 344.2812 L546.1624 284.3105 L423.1816 284.3105 L423.1816 262.3398"/>
        <path d="M423.1816 254.3398 L418.1816 266.3398 L423.1816 263.3398 L428.1816 266.3398 Z" stroke="none"/>
      </g>
    </g>
    <g id="y.edge.25">
      <g stroke-miterlimit="1.45" transform="matrix(0.963,0,0,0.963,23.1128,9.6303)" stroke-linecap="butt">
        <path fill="none" d="M552.547 344.2764 L552.547 274.3105 L513.9316 274.3105 L513.9316 164.2359"/>
        <path d="M513.9316 156.2359 L508.9316 168.2359 L513.9316 165.2359 L518.9316 168.2359 Z" stroke="none"/>
      </g>
    </g>
    <g id="y.edge.26">
      <g stroke-miterlimit="1.45" transform="matrix(0.963,0,0,0.963,23.1128,9.6303)" stroke-linecap="butt">
        <path fill="none" d="M527.0085 344.2812 L527.0085 314.3105 L182.6816 314.3105 L182.6816 164.2456"/>
        <path d="M182.6816 156.2456 L177.6816 168.2456 L182.6816 165.2456 L187.6816 168.2456 Z" stroke="none"/>
      </g>
    </g>
    <g id="y.edge.27">
      <g stroke-miterlimit="1.45" transform="matrix(0.963,0,0,0.963,23.1128,9.6303)" stroke-linecap="butt">
        <path fill="none" d="M533.3931 344.2715 L533.3931 304.3105 L227.6816 304.3105 L227.6816 262.3594"/>
        <path d="M227.6816 254.3594 L222.6816 266.3594 L227.6816 263.3594 L232.6816 266.3594 Z" stroke="none"/>
      </g>
    </g>
    <g id="y.edge.28">
      <g stroke-miterlimit="1.45" transform="matrix(0.963,0,0,0.963,23.1128,9.6303)" stroke-linecap="butt">
        <path fill="none" d="M597.2393 344.2715 L597.2393 324.3105 L1095.9316 324.3105 L1095.9316 262.3447"/>
        <path d="M1095.9316 254.3447 L1090.9316 266.3447 L1095.9316 263.3447 L1100.9316 266.3447 Z" stroke="none"/>
      </g>
    </g>
    <g id="y.edge.29">
      <g stroke-miterlimit="1.45" transform="matrix(0.963,0,0,0.963,23.1128,9.6303)" stroke-linecap="butt">
        <path fill="none" d="M520.6239 344.2715 L520.6239 324.3105 L110.1667 324.3105 L110.1667 262.3447"/>
        <path d="M110.1667 254.3447 L105.1667 266.3447 L110.1667 263.3447 L115.1667 266.3447 Z" stroke="none"/>
      </g>
    </g>
  </g>
</svg>
