<?xml version="1.0" encoding="UTF-8"?><svg xmlns="http://www.w3.org/2000/svg" xmlns:xlink="http://www.w3.org/1999/xlink" fill-opacity="1" color-rendering="auto" color-interpolation="auto" text-rendering="auto" stroke="black" stroke-linecap="square" width="1569" stroke-miterlimit="10" shape-rendering="auto" stroke-opacity="1" fill="black" stroke-dasharray="none" font-weight="normal" stroke-width="1" height="595" font-family="'Dialog'" font-style="normal" stroke-linejoin="miter" font-size="12" stroke-dashoffset="0" image-rendering="auto">
  <!--Generated by ySVG-->
  <defs id="genericDefs"/>
  <g>
    <defs id="defs1">
      <clipPath clipPathUnits="userSpaceOnUse" id="clipPath1">
        <path d="M0 0 L1569 0 L1569 595 L0 595 L0 0 Z"/>
      </clipPath>
    </defs>
    <g id="y.node.0">
      <g fill="white" transform="matrix(0.9675,0,0,0.9675,25.1545,9.6748)" stroke="white">
        <rect width="81" x="1386" height="72" y="225" stroke="none"/>
      </g>
      <g transform="matrix(0.9675,0,0,0.9675,25.1545,9.6748)">
        <rect fill="none" width="81" x="1386" height="72" y="225"/>
      </g>
      <g id="bla">
        <g font-family="sans-serif" transform="matrix(0.9675,0,0,0.9675,25.1545,9.6748)">
          <text xml:space="preserve" x="1407.6089" y="244.6738" stroke="none">Proc_2</text>
          <text xml:space="preserve" x="1399.6089" y="259.375" stroke="none">PROG: 38</text>
          <text xml:space="preserve" x="1401.1089" y="274.0762" stroke="none">STACK: 0</text>
          <text xml:space="preserve" x="1393.6089" y="288.7773" stroke="none">FRAME: 208</text>
        </g>
      </g>
    </g>
    <g id="y.node.1">
      <g fill="white" transform="matrix(0.9675,0,0,0.9675,25.1545,9.6748)" stroke="white">
        <rect width="81" x="730" height="72" y="112" stroke="none"/>
        <rect x="730" y="112" fill="none" width="81" height="72" stroke="black"/>
      </g>
      <g id="bla">
        <g font-family="sans-serif" transform="matrix(0.9675,0,0,0.9675,25.1545,9.6748)">
          <text xml:space="preserve" x="751.1089" y="131.8691" stroke="none">Proc_3</text>
          <text xml:space="preserve" x="743.1089" y="146.5703" stroke="none">PROG: 32</text>
          <text xml:space="preserve" x="744.6089" y="161.2715" stroke="none">STACK: 0</text>
          <text xml:space="preserve" x="737.1089" y="175.9727" stroke="none">FRAME: 240</text>
        </g>
      </g>
    </g>
    <g id="y.node.2">
      <g fill="white" transform="matrix(0.9675,0,0,0.9675,25.1545,9.6748)" stroke="white">
        <rect width="81" x="780" height="72" y="225" stroke="none"/>
        <rect x="780" y="225" fill="none" width="81" height="72" stroke="black"/>
      </g>
      <g id="bla">
        <g font-family="sans-serif" transform="matrix(0.9675,0,0,0.9675,25.1545,9.6748)">
          <text xml:space="preserve" x="801.6089" y="244.6738" stroke="none">Proc_1</text>
          <text xml:space="preserve" x="790.1089" y="259.375" stroke="none">PROG: 168</text>
          <text xml:space="preserve" x="791.6089" y="274.0762" stroke="none">STACK: 32</text>
          <text xml:space="preserve" x="787.6089" y="288.7773" stroke="none">FRAME: 240</text>
        </g>
      </g>
    </g>
    <g id="y.node.3">
      <g fill="white" transform="matrix(0.9675,0,0,0.9675,25.1545,9.6748)" stroke="white">
        <rect width="81" x="831" height="72" y="112" stroke="none"/>
        <rect x="831" y="112" fill="none" width="81" height="72" stroke="black"/>
      </g>
      <g id="bla">
        <g font-family="sans-serif" transform="matrix(0.9675,0,0,0.9675,25.1545,9.6748)">
          <text xml:space="preserve" x="852.1089" y="131.8691" stroke="none">Proc_6</text>
          <text xml:space="preserve" x="840.6089" y="146.5703" stroke="none">PROG: 120</text>
          <text xml:space="preserve" x="842.1089" y="161.2715" stroke="none">STACK: 32</text>
          <text xml:space="preserve" x="838.1089" y="175.9727" stroke="none">FRAME: 272</text>
        </g>
      </g>
    </g>
    <g id="y.node.4">
      <g fill="white" transform="matrix(0.9675,0,0,0.9675,25.1545,9.6748)" stroke="white">
        <rect width="81" x="477" height="72" y="225" stroke="none"/>
        <rect x="477" y="225" fill="none" width="81" height="72" stroke="black"/>
      </g>
      <g id="bla">
        <g font-family="sans-serif" transform="matrix(0.9675,0,0,0.9675,25.1545,9.6748)">
          <text xml:space="preserve" x="498.6089" y="244.6738" stroke="none">Proc_4</text>
          <text xml:space="preserve" x="490.6089" y="259.375" stroke="none">PROG: 44</text>
          <text xml:space="preserve" x="492.1089" y="274.0762" stroke="none">STACK: 0</text>
          <text xml:space="preserve" x="484.6089" y="288.7773" stroke="none">FRAME: 208</text>
        </g>
      </g>
    </g>
    <g id="y.node.5">
      <g fill="white" transform="matrix(0.9675,0,0,0.9675,25.1545,9.6748)" stroke="white">
        <rect width="81" x="376" height="72" y="225" stroke="none"/>
        <rect x="376" y="225" fill="none" width="81" height="72" stroke="black"/>
      </g>
      <g id="bla">
        <g font-family="sans-serif" transform="matrix(0.9675,0,0,0.9675,25.1545,9.6748)">
          <text xml:space="preserve" x="397.6089" y="244.6738" stroke="none">Proc_5</text>
          <text xml:space="preserve" x="389.6089" y="259.375" stroke="none">PROG: 22</text>
          <text xml:space="preserve" x="391.1089" y="274.0762" stroke="none">STACK: 0</text>
          <text xml:space="preserve" x="383.6089" y="288.7773" stroke="none">FRAME: 208</text>
        </g>
      </g>
    </g>
    <g id="y.node.6">
      <g fill="white" transform="matrix(0.9675,0,0,0.9675,25.1545,9.6748)" stroke="white">
        <rect width="81" x="881" height="72" y="225" stroke="none"/>
        <rect x="881" y="225" fill="none" width="81" height="72" stroke="black"/>
      </g>
      <g id="bla">
        <g font-family="sans-serif" transform="matrix(0.9675,0,0,0.9675,25.1545,9.6748)">
          <text xml:space="preserve" x="902.6089" y="244.6738" stroke="none">Proc_7</text>
          <text xml:space="preserve" x="898.1089" y="259.375" stroke="none">PROG: 8</text>
          <text xml:space="preserve" x="896.1089" y="274.0762" stroke="none">STACK: 0</text>
          <text xml:space="preserve" x="888.6089" y="288.7773" stroke="none">FRAME: 208</text>
        </g>
      </g>
    </g>
    <g id="y.node.7">
      <g fill="white" transform="matrix(0.9675,0,0,0.9675,25.1545,9.6748)" stroke="white">
        <rect width="81" x="982" height="72" y="225" stroke="none"/>
        <rect x="982" y="225" fill="none" width="81" height="72" stroke="black"/>
      </g>
      <g id="bla">
        <g font-family="sans-serif" transform="matrix(0.9675,0,0,0.9675,25.1545,9.6748)">
          <text xml:space="preserve" x="1003.6089" y="244.6738" stroke="none">Proc_8</text>
          <text xml:space="preserve" x="995.6089" y="259.375" stroke="none">PROG: 74</text>
          <text xml:space="preserve" x="997.1089" y="274.0762" stroke="none">STACK: 0</text>
          <text xml:space="preserve" x="989.6089" y="288.7773" stroke="none">FRAME: 208</text>
        </g>
      </g>
    </g>
    <g id="y.node.8">
      <g fill="white" transform="matrix(0.9675,0,0,0.9675,25.1545,9.6748)" stroke="white">
        <rect width="81" x="629" height="72" y="112" stroke="none"/>
        <rect x="629" y="112" fill="none" width="81" height="72" stroke="black"/>
      </g>
      <g id="bla">
        <g font-family="sans-serif" transform="matrix(0.9675,0,0,0.9675,25.1545,9.6748)">
          <text xml:space="preserve" x="649.1089" y="131.8691" stroke="none">Func_1</text>
          <text xml:space="preserve" x="642.1089" y="146.5703" stroke="none">PROG: 28</text>
          <text xml:space="preserve" x="643.6089" y="161.2715" stroke="none">STACK: 0</text>
          <text xml:space="preserve" x="636.1089" y="175.9727" stroke="none">FRAME: 240</text>
        </g>
      </g>
    </g>
    <g id="y.node.9">
      <g fill="white" transform="matrix(0.9675,0,0,0.9675,25.1545,9.6748)" stroke="white">
        <rect width="81" x="578" height="72" y="225" stroke="none"/>
        <rect x="578" y="225" fill="none" width="81" height="72" stroke="black"/>
      </g>
      <g id="bla">
        <g font-family="sans-serif" transform="matrix(0.9675,0,0,0.9675,25.1545,9.6748)">
          <text xml:space="preserve" x="598.6089" y="244.6738" stroke="none">Func_2</text>
          <text xml:space="preserve" x="591.6089" y="259.375" stroke="none">PROG: 66</text>
          <text xml:space="preserve" x="589.6089" y="274.0762" stroke="none">STACK: 32</text>
          <text xml:space="preserve" x="585.6089" y="288.7773" stroke="none">FRAME: 240</text>
        </g>
      </g>
    </g>
    <g id="y.node.10">
      <g fill="white" transform="matrix(0.9675,0,0,0.9675,25.1545,9.6748)" stroke="white">
        <rect width="81" x="528" height="72" y="112" stroke="none"/>
        <rect x="528" y="112" fill="none" width="81" height="72" stroke="black"/>
      </g>
      <g id="bla">
        <g font-family="sans-serif" transform="matrix(0.9675,0,0,0.9675,25.1545,9.6748)">
          <text xml:space="preserve" x="549.6089" y="131.8691" stroke="none">strcmp</text>
          <text xml:space="preserve" x="541.1089" y="146.5703" stroke="none">PROG: 30</text>
          <text xml:space="preserve" x="542.6089" y="161.2715" stroke="none">STACK: 0</text>
          <text xml:space="preserve" x="535.1089" y="175.9727" stroke="none">FRAME: 240</text>
        </g>
      </g>
    </g>
    <g id="y.node.11">
      <g fill="white" transform="matrix(0.9675,0,0,0.9675,25.1545,9.6748)" stroke="white">
        <rect width="81" x="831" height="72" y="0" stroke="none"/>
        <rect x="831" y="0" fill="none" width="81" height="72" stroke="black"/>
      </g>
      <g id="bla">
        <g font-family="sans-serif" transform="matrix(0.9675,0,0,0.9675,25.1545,9.6748)">
          <text xml:space="preserve" x="851.1089" y="19.0645" stroke="none">Func_3</text>
          <text xml:space="preserve" x="847.6089" y="33.7656" stroke="none">PROG: 8</text>
          <text xml:space="preserve" x="845.6089" y="48.4668" stroke="none">STACK: 0</text>
          <text xml:space="preserve" x="838.1089" y="63.168" stroke="none">FRAME: 272</text>
        </g>
      </g>
    </g>
    <g id="y.node.12">
      <g fill="white" transform="matrix(0.9675,0,0,0.9675,25.1545,9.6748)" stroke="white">
        <rect width="83" x="172" height="72" y="225" stroke="none"/>
        <rect x="172" y="225" fill="none" width="83" height="72" stroke="black"/>
      </g>
      <g id="bla">
        <g font-family="sans-serif" transform="matrix(0.9675,0,0,0.9675,25.1545,9.6748)">
          <text xml:space="preserve" x="179.6089" y="244.6738" stroke="none">debug_printf</text>
          <text xml:space="preserve" x="186.6089" y="259.375" stroke="none">PROG: 20</text>
          <text xml:space="preserve" x="184.6089" y="274.0762" stroke="none">STACK: 64</text>
          <text xml:space="preserve" x="180.6089" y="288.7773" stroke="none">FRAME: 272</text>
        </g>
      </g>
    </g>
    <g id="y.node.13">
      <g fill="white" transform="matrix(0.9675,0,0,0.9675,25.1545,9.6748)" stroke="white">
        <rect width="81" x="1285" height="72" y="112" stroke="none"/>
        <rect x="1285" y="112" fill="none" width="81" height="72" stroke="black"/>
      </g>
      <g id="bla">
        <g font-family="sans-serif" transform="matrix(0.9675,0,0,0.9675,25.1545,9.6748)">
          <text xml:space="preserve" x="1303.1089" y="131.8691" stroke="none">vprintfmt</text>
          <text xml:space="preserve" x="1295.1089" y="146.5703" stroke="none">PROG: 784</text>
          <text xml:space="preserve" x="1293.1089" y="161.2715" stroke="none">STACK: 352</text>
          <text xml:space="preserve" x="1292.6089" y="175.9727" stroke="none">FRAME: 656</text>
        </g>
      </g>
    </g>
    <g id="y.node.14">
      <g fill="rgb(127,255,212)" transform="matrix(0.9675,0,0,0.9675,25.1545,9.6748)" stroke="rgb(127,255,212)">
        <rect width="92" x="1280" height="72" y="0" stroke="none"/>
        <rect x="1280" y="0" fill="none" width="92" height="72" stroke="black"/>
      </g>
      <g id="bla">
        <g font-family="sans-serif" transform="matrix(0.9675,0,0,0.9675,25.1545,9.6748)">
          <text xml:space="preserve" x="1287.1089" y="19.0645" stroke="none">__unknown__</text>
          <text xml:space="preserve" x="1302.1089" y="33.7656" stroke="none">PROG: 0</text>
          <text xml:space="preserve" x="1300.1089" y="48.4668" stroke="none">STACK: 0</text>
          <text xml:space="preserve" x="1292.6089" y="63.168" stroke="none">FRAME: 656</text>
        </g>
      </g>
    </g>
    <g id="y.node.15">
      <g fill="white" transform="matrix(0.9675,0,0,0.9675,25.1545,9.6748)" stroke="white">
        <rect width="81" x="275" height="72" y="225" stroke="none"/>
        <rect x="275" y="225" fill="none" width="81" height="72" stroke="black"/>
      </g>
      <g id="bla">
        <g font-family="sans-serif" transform="matrix(0.9675,0,0,0.9675,25.1545,9.6748)">
          <text xml:space="preserve" x="293.6089" y="244.6738" stroke="none">setStats</text>
          <text xml:space="preserve" x="288.6089" y="259.375" stroke="none">PROG: 78</text>
          <text xml:space="preserve" x="290.1089" y="274.0762" stroke="none">STACK: 0</text>
          <text xml:space="preserve" x="282.6089" y="288.7773" stroke="none">FRAME: 208</text>
        </g>
      </g>
    </g>
    <g id="y.node.16">
      <g fill="white" transform="matrix(0.9675,0,0,0.9675,25.1545,9.6748)" stroke="white">
        <rect width="82" x="576" height="72" y="388" stroke="none"/>
        <rect x="576" y="388" fill="none" width="82" height="72" stroke="black"/>
      </g>
      <g id="bla">
        <g font-family="sans-serif" transform="matrix(0.9675,0,0,0.9675,25.1545,9.6748)">
          <text xml:space="preserve" x="583.6089" y="407.4785" stroke="none">thread_entry</text>
          <text xml:space="preserve" x="593.6089" y="422.1797" stroke="none">PROG: 6</text>
          <text xml:space="preserve" x="591.6089" y="436.8809" stroke="none">STACK: 0</text>
          <text xml:space="preserve" x="584.1089" y="451.582" stroke="none">FRAME: 192</text>
        </g>
      </g>
    </g>
    <g id="y.node.17">
      <g fill="white" transform="matrix(0.9675,0,0,0.9675,25.1545,9.6748)" stroke="white">
        <rect width="81" x="1285" height="72" y="225" stroke="none"/>
        <rect x="1285" y="225" fill="none" width="81" height="72" stroke="black"/>
      </g>
      <g id="bla">
        <g font-family="sans-serif" transform="matrix(0.9675,0,0,0.9675,25.1545,9.6748)">
          <text xml:space="preserve" x="1312.6089" y="244.6738" stroke="none">printf</text>
          <text xml:space="preserve" x="1298.6089" y="259.375" stroke="none">PROG: 50</text>
          <text xml:space="preserve" x="1296.6089" y="274.0762" stroke="none">STACK: 96</text>
          <text xml:space="preserve" x="1292.6089" y="288.7773" stroke="none">FRAME: 304</text>
        </g>
      </g>
    </g>
    <g id="y.node.18">
      <g fill="white" transform="matrix(0.9675,0,0,0.9675,25.1545,9.6748)" stroke="white">
        <rect width="81" x="5" height="72" y="388" stroke="none"/>
        <rect x="5" y="388" fill="none" width="81" height="72" stroke="black"/>
      </g>
      <g id="bla">
        <g font-family="sans-serif" transform="matrix(0.9675,0,0,0.9675,25.1545,9.6748)">
          <text xml:space="preserve" x="29" y="407.4785" stroke="none">sprintf</text>
          <text xml:space="preserve" x="18.5" y="422.1797" stroke="none">PROG: 64</text>
          <text xml:space="preserve" x="16.5" y="436.8809" stroke="none">STACK: 96</text>
          <text xml:space="preserve" x="12.5" y="451.582" stroke="none">FRAME: 288</text>
        </g>
      </g>
    </g>
    <g id="y.node.19">
      <g fill="white" transform="matrix(0.9675,0,0,0.9675,25.1545,9.6748)" stroke="white">
        <rect width="81" x="374" height="72" y="388" stroke="none"/>
        <rect x="374" y="388" fill="none" width="81" height="72" stroke="black"/>
      </g>
      <g id="bla">
        <g font-family="sans-serif" transform="matrix(0.9675,0,0,0.9675,25.1545,9.6748)">
          <text xml:space="preserve" x="391.6089" y="407.4785" stroke="none">memcpy</text>
          <text xml:space="preserve" x="387.6089" y="422.1797" stroke="none">PROG: 66</text>
          <text xml:space="preserve" x="389.1089" y="436.8809" stroke="none">STACK: 0</text>
          <text xml:space="preserve" x="381.6089" y="451.582" stroke="none">FRAME: 192</text>
        </g>
      </g>
    </g>
    <g id="y.node.20">
      <g fill="white" transform="matrix(0.9675,0,0,0.9675,25.1545,9.6748)" stroke="white">
        <rect width="81" x="475" height="72" y="388" stroke="none"/>
        <rect x="475" y="388" fill="none" width="81" height="72" stroke="black"/>
      </g>
      <g id="bla">
        <g font-family="sans-serif" transform="matrix(0.9675,0,0,0.9675,25.1545,9.6748)">
          <text xml:space="preserve" x="493.1089" y="407.4785" stroke="none">memset</text>
          <text xml:space="preserve" x="488.6089" y="422.1797" stroke="none">PROG: 70</text>
          <text xml:space="preserve" x="490.1089" y="436.8809" stroke="none">STACK: 0</text>
          <text xml:space="preserve" x="482.6089" y="451.582" stroke="none">FRAME: 192</text>
        </g>
      </g>
    </g>
    <g id="y.node.21">
      <g fill="white" transform="matrix(0.9675,0,0,0.9675,25.1545,9.6748)" stroke="white">
        <rect width="81" x="577" height="72" y="521" stroke="none"/>
        <rect x="577" y="521" fill="none" width="81" height="72" stroke="black"/>
      </g>
      <g id="bla">
        <g font-family="sans-serif" transform="matrix(0.9675,0,0,0.9675,25.1545,9.6748)">
          <text xml:space="preserve" x="606.1089" y="540.2832" stroke="none">_init</text>
          <text xml:space="preserve" x="586.6089" y="554.9844" stroke="none">PROG: 172</text>
          <text xml:space="preserve" x="584.6089" y="569.6855" stroke="none">STACK: 192</text>
          <text xml:space="preserve" x="584.1089" y="584.3867" stroke="none">FRAME: 192</text>
        </g>
      </g>
    </g>
    <g id="y.node.22">
      <g fill="white" transform="matrix(0.9675,0,0,0.9675,25.1545,9.6748)" stroke="white">
        <rect width="83" x="880" height="72" y="388" stroke="none"/>
        <rect x="880" y="388" fill="none" width="83" height="72" stroke="black"/>
      </g>
      <g id="bla">
        <g font-family="sans-serif" transform="matrix(0.9675,0,0,0.9675,25.1545,9.6748)">
          <text xml:space="preserve" x="908.1089" y="407.4785" stroke="none">main</text>
          <text xml:space="preserve" x="887.6089" y="422.1797" stroke="none">PROG: 1780</text>
          <text xml:space="preserve" x="892.6089" y="436.8809" stroke="none">STACK: 16</text>
          <text xml:space="preserve" x="888.6089" y="451.582" stroke="none">FRAME: 208</text>
        </g>
      </g>
    </g>
    <g id="y.node.23">
      <g fill="white" transform="matrix(0.9675,0,0,0.9675,25.1545,9.6748)" stroke="white">
        <rect width="81" x="1184" height="72" y="225" stroke="none"/>
        <rect x="1184" y="225" fill="none" width="81" height="72" stroke="black"/>
      </g>
      <g id="bla">
        <g font-family="sans-serif" transform="matrix(0.9675,0,0,0.9675,25.1545,9.6748)">
          <text xml:space="preserve" x="1204.6089" y="244.6738" stroke="none">Func_1</text>
          <text xml:space="preserve" x="1197.6089" y="259.375" stroke="none">PROG: 28</text>
          <text xml:space="preserve" x="1199.1089" y="274.0762" stroke="none">STACK: 0</text>
          <text xml:space="preserve" x="1191.6089" y="288.7773" stroke="none">FRAME: 208</text>
        </g>
      </g>
    </g>
    <g id="y.node.24">
      <g fill="white" transform="matrix(0.9675,0,0,0.9675,25.1545,9.6748)" stroke="white">
        <rect width="81" x="1083" height="72" y="225" stroke="none"/>
        <rect x="1083" y="225" fill="none" width="81" height="72" stroke="black"/>
      </g>
      <g id="bla">
        <g font-family="sans-serif" transform="matrix(0.9675,0,0,0.9675,25.1545,9.6748)">
          <text xml:space="preserve" x="1104.6089" y="244.6738" stroke="none">Proc_6</text>
          <text xml:space="preserve" x="1093.1089" y="259.375" stroke="none">PROG: 120</text>
          <text xml:space="preserve" x="1094.6089" y="274.0762" stroke="none">STACK: 32</text>
          <text xml:space="preserve" x="1090.6089" y="288.7773" stroke="none">FRAME: 240</text>
        </g>
      </g>
    </g>
    <g id="y.node.25">
      <g fill="white" transform="matrix(0.9675,0,0,0.9675,25.1545,9.6748)" stroke="white">
        <rect width="81" x="1083" height="72" y="112" stroke="none"/>
        <rect x="1083" y="112" fill="none" width="81" height="72" stroke="black"/>
      </g>
      <g id="bla">
        <g font-family="sans-serif" transform="matrix(0.9675,0,0,0.9675,25.1545,9.6748)">
          <text xml:space="preserve" x="1103.6089" y="131.8691" stroke="none">Func_3</text>
          <text xml:space="preserve" x="1100.1089" y="146.5703" stroke="none">PROG: 8</text>
          <text xml:space="preserve" x="1098.1089" y="161.2715" stroke="none">STACK: 0</text>
          <text xml:space="preserve" x="1090.6089" y="175.9727" stroke="none">FRAME: 240</text>
        </g>
      </g>
    </g>
    <g id="y.node.26">
      <g fill="white" transform="matrix(0.9675,0,0,0.9675,25.1545,9.6748)" stroke="white">
        <rect width="81" x="1487" height="72" y="225" stroke="none"/>
        <rect x="1487" y="225" fill="none" width="81" height="72" stroke="black"/>
      </g>
      <g id="bla">
        <g font-family="sans-serif" transform="matrix(0.9675,0,0,0.9675,25.1545,9.6748)">
          <text xml:space="preserve" x="1509.1089" y="244.6738" stroke="none">printstr</text>
          <text xml:space="preserve" x="1500.6089" y="259.375" stroke="none">PROG: 90</text>
          <text xml:space="preserve" x="1495.1089" y="274.0762" stroke="none">STACK: 128</text>
          <text xml:space="preserve" x="1494.6089" y="288.7773" stroke="none">FRAME: 336</text>
        </g>
      </g>
    </g>
    <g id="y.node.27">
      <g fill="white" transform="matrix(0.9675,0,0,0.9675,25.1545,9.6748)" stroke="white">
        <rect width="81" x="983" height="72" y="388" stroke="none"/>
        <rect x="983" y="388" fill="none" width="81" height="72" stroke="black"/>
      </g>
      <g id="bla">
        <g font-family="sans-serif" transform="matrix(0.9675,0,0,0.9675,25.1545,9.6748)">
          <text xml:space="preserve" x="994.6089" y="407.4785" stroke="none">tohost_exit</text>
          <text xml:space="preserve" x="996.6089" y="422.1797" stroke="none">PROG: 18</text>
          <text xml:space="preserve" x="998.1089" y="436.8809" stroke="none">STACK: 0</text>
          <text xml:space="preserve" x="990.6089" y="451.582" stroke="none">FRAME: 192</text>
        </g>
      </g>
    </g>
    <g id="y.node.28">
      <g fill="white" transform="matrix(0.9675,0,0,0.9675,25.1545,9.6748)" stroke="white">
        <rect width="81" x="5" height="72" y="225" stroke="none"/>
        <rect x="5" y="225" fill="none" width="81" height="72" stroke="black"/>
      </g>
      <g id="bla">
        <g font-family="sans-serif" transform="matrix(0.9675,0,0,0.9675,25.1545,9.6748)">
          <text xml:space="preserve" x="23" y="244.6738" stroke="none">vprintfmt</text>
          <text xml:space="preserve" x="15" y="259.375" stroke="none">PROG: 784</text>
          <text xml:space="preserve" x="13" y="274.0762" stroke="none">STACK: 352</text>
          <text xml:space="preserve" x="12.5" y="288.7773" stroke="none">FRAME: 640</text>
        </g>
      </g>
    </g>
    <g id="y.node.29">
      <g fill="rgb(127,255,212)" transform="matrix(0.9675,0,0,0.9675,25.1545,9.6748)" stroke="rgb(127,255,212)">
        <rect width="92" x="0" height="72" y="112" stroke="none"/>
        <rect x="0" y="112" fill="none" width="92" height="72" stroke="black"/>
      </g>
      <g id="bla">
        <g font-family="sans-serif" transform="matrix(0.9675,0,0,0.9675,25.1545,9.6748)">
          <text xml:space="preserve" x="7" y="131.8691" stroke="none">__unknown__</text>
          <text xml:space="preserve" x="22" y="146.5703" stroke="none">PROG: 0</text>
          <text xml:space="preserve" x="20" y="161.2715" stroke="none">STACK: 0</text>
          <text xml:space="preserve" x="12.5" y="175.9727" stroke="none">FRAME: 640</text>
        </g>
      </g>
    </g>
    <g id="y.node.30">
      <g fill="white" transform="matrix(0.9675,0,0,0.9675,25.1545,9.6748)" stroke="white">
        <rect width="81" x="1084" height="72" y="388" stroke="none"/>
        <rect x="1084" y="388" fill="none" width="81" height="72" stroke="black"/>
      </g>
      <g id="bla">
        <g font-family="sans-serif" transform="matrix(0.9675,0,0,0.9675,25.1545,9.6748)">
          <text xml:space="preserve" x="1106.1089" y="407.4785" stroke="none">printstr</text>
          <text xml:space="preserve" x="1097.6089" y="422.1797" stroke="none">PROG: 90</text>
          <text xml:space="preserve" x="1092.1089" y="436.8809" stroke="none">STACK: 128</text>
          <text xml:space="preserve" x="1091.6089" y="451.582" stroke="none">FRAME: 320</text>
        </g>
      </g>
    </g>
    <g id="y.edge.0">
      <g stroke-miterlimit="1.45" transform="matrix(0.9675,0,0,0.9675,25.1545,9.6748)" stroke-linecap="butt">
        <path fill="none" d="M800.8589 225.5703 L800.8589 205.6094 L770.6089 205.6094 L770.6089 193.6484"/>
        <path d="M770.6089 185.6484 L765.6089 197.6484 L770.6089 194.6484 L775.6089 197.6484 Z" stroke="none"/>
      </g>
    </g>
    <g id="y.edge.1">
      <g stroke-miterlimit="1.45" transform="matrix(0.9675,0,0,0.9675,25.1545,9.6748)" stroke-linecap="butt">
        <path fill="none" d="M841.3589 225.5703 L841.3589 205.6094 L871.6089 205.6094 L871.6089 193.6484"/>
        <path d="M871.6089 185.6484 L866.6089 197.6484 L871.6089 194.6484 L876.6089 197.6484 Z" stroke="none"/>
      </g>
    </g>
    <g id="y.edge.2">
      <g stroke-miterlimit="1.45" transform="matrix(0.9675,0,0,0.9675,25.1545,9.6748)" stroke-linecap="butt">
        <path fill="none" d="M871.6089 112.7656 L871.6089 80.8437"/>
        <path d="M871.6089 72.8437 L866.6089 84.8437 L871.6089 81.8437 L876.6089 84.8437 Z" stroke="none"/>
      </g>
    </g>
    <g id="y.edge.3">
      <g stroke-miterlimit="1.45" transform="matrix(0.9675,0,0,0.9675,25.1545,9.6748)" stroke-linecap="butt">
        <path fill="none" d="M639.3589 225.5703 L639.3589 205.6094 L669.6089 205.6094 L669.6089 193.6484"/>
        <path d="M669.6089 185.6484 L664.6089 197.6484 L669.6089 194.6484 L674.6089 197.6484 Z" stroke="none"/>
      </g>
    </g>
    <g id="y.edge.4">
      <g stroke-miterlimit="1.45" transform="matrix(0.9675,0,0,0.9675,25.1545,9.6748)" stroke-linecap="butt">
        <path fill="none" d="M598.8589 225.5703 L598.8589 205.6094 L568.6089 205.6094 L568.6089 193.6484"/>
        <path d="M568.6089 185.6484 L563.6089 197.6484 L568.6089 194.6484 L573.6089 197.6484 Z" stroke="none"/>
      </g>
    </g>
    <g id="y.edge.5">
      <g fill="red" stroke-miterlimit="1.45" transform="matrix(0.9675,0,0,0.9675,25.1545,9.6748)" stroke-linecap="butt" stroke="red">
        <path fill="none" d="M1326.1089 112.7656 L1326.1089 80.8437"/>
        <path d="M1326.1089 72.8437 L1321.1089 84.8437 L1326.1089 81.8437 L1331.1089 84.8437 Z" stroke="none"/>
      </g>
    </g>
    <g id="y.edge.6">
      <g fill="red" stroke-miterlimit="1.45" transform="matrix(0.9675,0,0,0.9675,25.1545,9.6748)" stroke-linecap="butt" stroke="red">
        <path fill="none" d="M1326.1089 225.5703 L1326.1089 193.6484"/>
        <path d="M1326.1089 185.6484 L1321.1089 197.6484 L1326.1089 194.6484 L1331.1089 197.6484 Z" stroke="none"/>
      </g>
    </g>
    <g id="y.edge.7">
      <g stroke-miterlimit="1.45" transform="matrix(0.9675,0,0,0.9675,25.1545,9.6748)" stroke-linecap="butt">
        <path fill="none" d="M46 388.3701 L46 306.458"/>
        <path d="M46 298.458 L41 310.458 L46 307.458 L51 310.458 Z" stroke="none"/>
      </g>
    </g>
    <g id="y.edge.8">
      <g stroke-miterlimit="1.45" transform="matrix(0.9675,0,0,0.9675,25.1545,9.6748)" stroke-linecap="butt">
        <path fill="none" d="M594.4661 521.1895 L594.4661 491.2188 L415.1089 491.2188 L415.1089 469.248"/>
        <path d="M415.1089 461.248 L410.1089 473.248 L415.1089 470.248 L420.1089 473.248 Z" stroke="none"/>
      </g>
    </g>
    <g id="y.edge.9">
      <g stroke-miterlimit="1.45" transform="matrix(0.9675,0,0,0.9675,25.1545,9.6748)" stroke-linecap="butt">
        <path fill="none" d="M606.0375 521.1797 L606.0375 481.2188 L516.1089 481.2188 L516.1089 469.2578"/>
        <path d="M516.1089 461.2578 L511.1089 473.2578 L516.1089 470.2578 L521.1089 473.2578 Z" stroke="none"/>
      </g>
    </g>
    <g id="y.edge.10">
      <g stroke-miterlimit="1.45" transform="matrix(0.9675,0,0,0.9675,25.1545,9.6748)" stroke-linecap="butt">
        <path fill="none" d="M617.6089 521.1895 L617.6089 469.248"/>
        <path d="M617.6089 461.248 L612.6089 473.248 L617.6089 470.248 L622.6089 473.248 Z" stroke="none"/>
      </g>
    </g>
    <g id="y.edge.11">
      <g fill="red" stroke-miterlimit="1.45" transform="matrix(0.9675,0,0,0.9675,25.1545,9.6748)" stroke-linecap="butt" stroke="red">
        <path fill="none" d="M629.1804 521.1797 L629.1804 481.2188 L922.1089 481.2188 L922.1089 469.2578"/>
        <path d="M922.1089 461.2578 L917.1089 473.2578 L922.1089 470.2578 L927.1089 473.2578 Z" stroke="none"/>
      </g>
    </g>
    <g id="y.edge.12">
      <g stroke-miterlimit="1.45" transform="matrix(0.9675,0,0,0.9675,25.1545,9.6748)" stroke-linecap="butt">
        <path fill="none" d="M640.7518 521.1895 L640.7518 491.2188 L1024.1089 491.2188 L1024.1089 469.248"/>
        <path d="M1024.1089 461.248 L1019.1089 473.248 L1024.1089 470.248 L1029.1089 473.248 Z" stroke="none"/>
      </g>
    </g>
    <g id="y.edge.13">
      <g stroke-miterlimit="1.45" transform="matrix(0.9675,0,0,0.9675,25.1545,9.6748)" stroke-linecap="butt">
        <path fill="none" d="M582.8947 521.1797 L582.8947 501.2188 L46 501.2188 L46 469.2578"/>
        <path d="M46 461.2578 L41 473.2578 L46 470.2578 L51 473.2578 Z" stroke="none"/>
      </g>
    </g>
    <g id="y.edge.14">
      <g stroke-miterlimit="1.45" transform="matrix(0.9675,0,0,0.9675,25.1545,9.6748)" stroke-linecap="butt">
        <path fill="none" d="M652.3232 521.1797 L652.3232 501.2188 L1125.1089 501.2188 L1125.1089 469.2578"/>
        <path d="M1125.1089 461.2578 L1120.1089 473.2578 L1125.1089 470.2578 L1130.1089 473.2578 Z" stroke="none"/>
      </g>
    </g>
    <g id="y.edge.15">
      <g stroke-miterlimit="1.45" transform="matrix(0.9675,0,0,0.9675,25.1545,9.6748)" stroke-linecap="butt">
        <path fill="none" d="M883.8012 388.375 L883.8012 368.4141 L214.1089 368.4141 L214.1089 306.4482"/>
        <path d="M214.1089 298.4482 L209.1089 310.4482 L214.1089 307.4482 L219.1089 310.4482 Z" stroke="none"/>
      </g>
    </g>
    <g id="y.edge.16">
      <g stroke-miterlimit="1.45" transform="matrix(0.9675,0,0,0.9675,25.1545,9.6748)" stroke-linecap="butt">
        <path fill="none" d="M890.1859 388.3848 L890.1859 358.4141 L316.1089 358.4141 L316.1089 306.4434"/>
        <path d="M316.1089 298.4434 L311.1089 310.4434 L316.1089 307.4434 L321.1089 310.4434 Z" stroke="none"/>
      </g>
    </g>
    <g id="y.edge.17">
      <g stroke-miterlimit="1.45" transform="matrix(0.9675,0,0,0.9675,25.1545,9.6748)" stroke-linecap="butt">
        <path fill="none" d="M896.5704 388.375 L896.5704 348.4141 L417.1089 348.4141 L417.1089 306.4629"/>
        <path d="M417.1089 298.4629 L412.1089 310.4629 L417.1089 307.4629 L422.1089 310.4629 Z" stroke="none"/>
      </g>
    </g>
    <g id="y.edge.18">
      <g stroke-miterlimit="1.45" transform="matrix(0.9675,0,0,0.9675,25.1545,9.6748)" stroke-linecap="butt">
        <path fill="none" d="M902.9551 388.3652 L902.9551 338.4141 L518.1089 338.4141 L518.1089 306.4531"/>
        <path d="M518.1089 298.4531 L513.1089 310.4531 L518.1089 307.4531 L523.1089 310.4531 Z" stroke="none"/>
      </g>
    </g>
    <g id="y.edge.19">
      <g stroke-miterlimit="1.45" transform="matrix(0.9675,0,0,0.9675,25.1545,9.6748)" stroke-linecap="butt">
        <path fill="none" d="M909.3397 388.3848 L909.3397 328.4141 L619.1089 328.4141 L619.1089 306.4434"/>
        <path d="M619.1089 298.4434 L614.1089 310.4434 L619.1089 307.4434 L624.1089 310.4434 Z" stroke="none"/>
      </g>
    </g>
    <g id="y.edge.20">
      <g stroke-miterlimit="1.45" transform="matrix(0.9675,0,0,0.9675,25.1545,9.6748)" stroke-linecap="butt">
        <path fill="none" d="M922.1089 388.3701 L922.1089 306.458"/>
        <path d="M922.1089 298.458 L917.1089 310.458 L922.1089 307.458 L927.1089 310.458 Z" stroke="none"/>
      </g>
    </g>
    <g id="y.edge.21">
      <g stroke-miterlimit="1.45" transform="matrix(0.9675,0,0,0.9675,25.1545,9.6748)" stroke-linecap="butt">
        <path fill="none" d="M928.4935 388.3799 L928.4935 318.4141 L1023.1089 318.4141 L1023.1089 306.4531"/>
        <path d="M1023.1089 298.4531 L1018.1089 310.4531 L1023.1089 307.4531 L1028.1089 310.4531 Z" stroke="none"/>
      </g>
    </g>
    <g id="y.edge.22">
      <g stroke-miterlimit="1.45" transform="matrix(0.9675,0,0,0.9675,25.1545,9.6748)" stroke-linecap="butt">
        <path fill="none" d="M915.7243 388.3799 L915.7243 318.4141 L821.1089 318.4141 L821.1089 306.4531"/>
        <path d="M821.1089 298.4531 L816.1089 310.4531 L821.1089 307.4531 L826.1089 310.4531 Z" stroke="none"/>
      </g>
    </g>
    <g id="y.edge.23">
      <g stroke-miterlimit="1.45" transform="matrix(0.9675,0,0,0.9675,25.1545,9.6748)" stroke-linecap="butt">
        <path fill="none" d="M941.2628 388.3652 L941.2628 338.4141 L1225.1089 338.4141 L1225.1089 306.4531"/>
        <path d="M1225.1089 298.4531 L1220.1089 310.4531 L1225.1089 307.4531 L1230.1089 310.4531 Z" stroke="none"/>
      </g>
    </g>
    <g id="y.edge.24">
      <g stroke-miterlimit="1.45" transform="matrix(0.9675,0,0,0.9675,25.1545,9.6748)" stroke-linecap="butt">
        <path fill="none" d="M934.8782 388.3848 L934.8782 328.4141 L1124.1089 328.4141 L1124.1089 306.4434"/>
        <path d="M1124.1089 298.4434 L1119.1089 310.4434 L1124.1089 307.4434 L1129.1089 310.4434 Z" stroke="none"/>
      </g>
    </g>
    <g id="y.edge.25">
      <g stroke-miterlimit="1.45" transform="matrix(0.9675,0,0,0.9675,25.1545,9.6748)" stroke-linecap="butt">
        <path fill="none" d="M954.032 388.3848 L954.032 358.4141 L1427.1089 358.4141 L1427.1089 306.4434"/>
        <path d="M1427.1089 298.4434 L1422.1089 310.4434 L1427.1089 307.4434 L1432.1089 310.4434 Z" stroke="none"/>
      </g>
    </g>
    <g id="y.edge.26">
      <g fill="red" stroke-miterlimit="1.45" transform="matrix(0.9675,0,0,0.9675,25.1545,9.6748)" stroke-linecap="butt" stroke="red">
        <path fill="none" d="M947.6474 388.375 L947.6474 348.4141 L1326.1089 348.4141 L1326.1089 306.4629"/>
        <path d="M1326.1089 298.4629 L1321.1089 310.4629 L1326.1089 307.4629 L1331.1089 310.4629 Z" stroke="none"/>
      </g>
    </g>
    <g id="y.edge.27">
      <g stroke-miterlimit="1.45" transform="matrix(0.9675,0,0,0.9675,25.1545,9.6748)" stroke-linecap="butt">
        <path fill="none" d="M960.4166 388.375 L960.4166 368.4141 L1528.1089 368.4141 L1528.1089 306.4482"/>
        <path d="M1528.1089 298.4482 L1523.1089 310.4482 L1528.1089 307.4482 L1533.1089 310.4482 Z" stroke="none"/>
      </g>
    </g>
    <g id="y.edge.28">
      <g stroke-miterlimit="1.45" transform="matrix(0.9675,0,0,0.9675,25.1545,9.6748)" stroke-linecap="butt">
        <path fill="none" d="M1124.1089 225.5703 L1124.1089 193.6484"/>
        <path d="M1124.1089 185.6484 L1119.1089 197.6484 L1124.1089 194.6484 L1129.1089 197.6484 Z" stroke="none"/>
      </g>
    </g>
    <g id="y.edge.29">
      <g stroke-miterlimit="1.45" transform="matrix(0.9675,0,0,0.9675,25.1545,9.6748)" stroke-linecap="butt">
        <path fill="none" d="M46 225.5703 L46 193.6484"/>
        <path d="M46 185.6484 L41 197.6484 L46 194.6484 L51 197.6484 Z" stroke="none"/>
      </g>
    </g>
  </g>
</svg>
